<svg xmlns="http://www.w3.org/2000/svg" xmlns:xlink="http://www.w3.org/1999/xlink" version="1.1" x="0px" y="0px" viewBox="0 0.5 100 100" enable-background="new 82.14 127.5 100 100" xml:space="preserve"><g><path fill="#FFD105" d="M50,4.7C25,4.7,4.7,25,4.7,50C4.7,75,25,95.3,50,95.3S95.3,75,95.3,50C95.3,25,75,4.7,50,4.7z M50,79   c-3,0-5.4-2.4-5.4-5.4c0-3,2.4-5.4,5.4-5.4s5.4,2.4,5.4,5.4C55.4,76.5,53,79,50,79z M50,62.7c-4,0-7.2-30.4-7.2-34.4S46,21,50,21   s7.2,3.2,7.2,7.2S54,62.7,50,62.7z"></path></g></svg>
